<svg xmlns="http://www.w3.org/2000/svg" enable-background="new 0 0 110 110" viewBox="0 0 110 110"><path fill="#fff" stroke="#001466" stroke-linecap="round" stroke-linejoin="round" stroke-miterlimit="10" stroke-width=".5" d="M43.8 52.3c-6 .4-13.1-.2-14.4-2-1.8-2.4 0-24.5 0-24.5 0-1.3 1-2.3 2.3-2.3 0 0 20.9-1.6 20.8 2.3 0 0 2.1 22.2 0 24.5-.8.9-3.5 1.5-6.8 1.9"/><path fill="#fdb870" d="M48.8 26.6s1.4 4.3 0 4.7c-1.5.5-14.1.6-15.7 0-1.2-.5 0-4.7 0-4.7 0-.2.7-.4 1.6-.4 0 0 14.2-.3 14.1.4z"/><path fill="#e6f3fb" d="M36.7 34.9s.3 2.7 0 3c-.3.3-3.1.4-3.4 0-.3-.3 0-3 0-3 0-.2.2-.3.3-.3 0 0 3.1-.2 3.1.3zM42.6 34.9s.3 2.7 0 3c-.3.3-3.1.4-3.4 0-.3-.3 0-3 0-3 0-.2.2-.3.3-.3 0 0 3.1-.2 3.1.3zM48.5 34.9s.3 2.7 0 3c-.3.3-3.1.4-3.4 0-.3-.3 0-3 0-3 0-.2.2-.3.3-.3 0 0 3.1-.2 3.1.3zM36.7 40.5s.3 2.7 0 3c-.3.3-3.1.4-3.4 0-.3-.3 0-3 0-3 0-.2.2-.3.3-.3 0 0 3.1-.2 3.1.3zM42.6 40.5s.3 2.7 0 3c-.3.3-3.1.4-3.4 0-.3-.3 0-3 0-3 0-.2.2-.3.3-.3 0 0 3.1-.2 3.1.3zM36.7 46.1s.3 2.7 0 3c-.3.3-3.1.4-3.4 0-.3-.3 0-3 0-3 0-.2.2-.3.3-.3 0 0 3.1-.2 3.1.3zM42.6 46.1s.3 2.7 0 3c-.3.3-3.1.4-3.4 0-.3-.3 0-3 0-3 0-.2.2-.3.3-.3 0 0 3.1-.2 3.1.3z"/><path fill="#ff7757" d="M48.5 41s.3 6.9 0 7.6c-.3.8-3.1 1-3.4 0-.3-.8 0-7.6 0-7.6 0-.4.2-.7.3-.7 0 0 3.1-.5 3.1.7z"/><path fill="none" stroke="#001466" stroke-linecap="round" stroke-linejoin="round" stroke-miterlimit="10" stroke-width=".5" d="m95.7 80.1 1.7 3.8"/><path fill="#001466" stroke="#001466" stroke-linecap="round" stroke-linejoin="round" stroke-miterlimit="10" stroke-width=".5" d="m86.2 76.3 10.7 6.5-1.2-2.7z"/><path fill="none" stroke="#001466" stroke-linecap="round" stroke-linejoin="round" stroke-miterlimit="10" stroke-width=".5" d="M75.8 70.1c-.1-.1-.2-.1-.3-.2M76.2 69l.1.1"/><path fill="none" stroke="#001466" stroke-linecap="round" stroke-linejoin="round" stroke-miterlimit="10" stroke-width=".5" d="M52.5 59.3c-.7-1.4-.3-1.7.2-1.5.7.3 2.2 2.2 3.4 3.4 1 1 1.9 1.4 1.9 1.4-.9-3.9.9-4.2 1.4-4.3.1 0 .1.1.1.1-.1.3-.3 1.3.2 2.7.6 1.9.8 3 .2 4.3-.6 1.4 1 2 1 2l9.8 4.1.9-3.8 1.8-7.4c.7-2.8 3-5 5.8-5.5.2 0 .3-.1.5-.1l9-.1c.2 0 .4.1.6.1 4.2.6 6.2 2.7 7.5 6.3l5.9 14.5c1 2.4-.5 5.3-3.1 5.5-.6.1-1.1 0-1.6-.2L85.5 76M54.1 61.5c-1.3-1.1-2.2-3.3-2.9-3.6-.6-.3-1 .2.1 2"/><path fill="none" stroke="#001466" stroke-linecap="round" stroke-linejoin="round" stroke-miterlimit="10" stroke-width=".5" d="M53.4 62.2c-1.3-1-2.4-3.1-3.2-3.3s-1.1.6 1.4 3.5"/><path fill="none" stroke="#001466" stroke-linecap="round" stroke-linejoin="round" stroke-miterlimit="10" stroke-width=".5" d="M53.2 64c-1.4-1.1-2.8-3.4-3.3-2.8-1 1 3 6.6 8.5 10.2l12.4 8.2c2 1.3 4.7.2 5.2-2.2l.9-3L78.4 85M63.6 68.6 61 73.2"/><path fill="#fff" stroke="#001466" stroke-linecap="round" stroke-linejoin="round" stroke-miterlimit="10" stroke-width=".5" d="M78 59.6c2.5 1 4.4 20.2 3.5 20.3-2.9.2-11.8.9-14.8 1.1-2.2.2-4.7-20-3.5-20.3 2.4-.5 11.8-2.3 14.8-1.1z"/><path fill="#fdb870" stroke="#001466" stroke-linecap="round" stroke-linejoin="round" stroke-miterlimit="10" stroke-width=".5" d="m89.4 55-.6.7c-1.4 1.6-2.7 2.4-4.2 2.4-1.6 0-3-1-4.2-2.1l-1.1-1c.2 0 .3-.1.5-.1l9-.1c.1 0 .3.1.6.2h0z"/><path fill="#fff" stroke="#001466" stroke-linecap="round" stroke-linejoin="round" stroke-miterlimit="10" stroke-width=".5" d="M76.6 49.6C77.3 53 81 53 81.5 53v.1c.6 1.3-.1 1.8-.1 1.8 2 1.8 3.8 2.7 6.2-.1-.7-1.7-1.3-3.3-1.3-4.6 0 0 .2-.4.8-4 .7-3.6-6.6-4.9-8.8-3.9-2.2 1-2.4 3.8-1.7 7.3z"/><path fill="#fff" stroke="#001466" stroke-linecap="round" stroke-linejoin="round" stroke-miterlimit="10" stroke-width=".5" d="M86.1 50c1 .2 1.8-.3 1.9-1.1.1-.8-.5-1.5-1.4-1.7-.9-.2-1.8.3-1.9 1.1"/><path fill="#001466" d="M86.4 47.2s.3-1.3-1.8-1.9c-2.1-.6-2.9-2-2.9-2-.1.6-1.8 3.4-3.1.3 0 0-1.3 4-3.9 1.9-2.6-2.1-.2-6.3 3-4.9 0 0-1.2-2.6 2.6-2.8 3.8-.2 13.3.5 7.8 10.5-.3-.6-.8-1-1.7-1.1z"/><path fill="#001466" d="M80.7 47.5c-.1.3.1.5.4.6.3.1.6-.1.6-.4.1-.3-.2-.5-.4-.6-.3 0-.5.2-.6.4zM77.2 47.7c-.1.3.1.5.4.6.3.1.6-.1.6-.4.1-.3-.2-.5-.4-.6-.2-.1-.5.1-.6.4z"/><path fill="none" stroke="#001466" stroke-linecap="round" stroke-linejoin="round" stroke-miterlimit="10" stroke-width=".5" d="M82.1 46.6c-.3-.5-.9-.6-1.4-.3M78.6 46.5c-.3-.5-.9-.6-1.4-.3M79.3 47.4l-.2 1.5.7-.1M80.6 50.4s-.4 1.1-1.6.4"/><path fill="#001466" d="M84.8 47.9s-2-1.4-.1-3.3c1.8-1.9 2.8 1.8 2.8 1.8l-.1 1.1c-1.1-.8-1.9-.4-2.6.4z"/><path fill="none" stroke="#001466" stroke-linecap="round" stroke-linejoin="round" stroke-miterlimit="10" stroke-width=".5" d="m86.6 48.6-.3.1"/><path fill="#fff" stroke="#001466" stroke-linecap="round" stroke-linejoin="round" stroke-miterlimit="10" stroke-width=".5" d="m42.2 63.9 5.1.6M27.5 51.8c-.4.2-.4.8-.3 1.5.1.5.1 1 .1 1.4 0 .7-.2 1.3-1 1.6-1.1.5-3.4.3-3.4.3-.7 1.9-.1 3.6 1.1 5.1L17.2 63s1.9-.9-.4-6.1c-2.3-5.2-.5-11.8 4.1-12 4.6-.2 4.6 3.2 5.2 4.9.3.9 2.2 1.7 1.4 2z"/><path fill="#001466" d="M25.3 46.4c-.9 2.6-2.7.4-5 4.7-.3.6-1.9 1.6 0 3.6 1 1.1-3.8 2.9-6.2 4.3-1.3.8-.6-5.3-1.6-8.6s3.8-9.4 9.5-7.9c2.9.7 3.7 2.7 3.3 3.9z"/><path fill="#fff" stroke="#001466" stroke-linecap="round" stroke-linejoin="round" stroke-miterlimit="10" stroke-width=".5" d="M19.8 52.1c-.6.2-1.2-.2-1.4-.7-.2-.6.2-1.2.8-1.4.6-.2 1.2.2 1.4.8"/><path fill="none" stroke="#001466" stroke-linecap="round" stroke-linejoin="round" stroke-miterlimit="10" stroke-width=".5" d="M23.7 50c.1-.7.7-1.1 1.4-1M19.5 51l.2.1"/><path fill="#fff" stroke="#001466" stroke-linecap="round" stroke-linejoin="round" stroke-miterlimit="10" stroke-width=".5" d="m41.2 70.8 1.6.8M27.2 70.6l2.3 1.7"/><path fill="none" stroke="#001466" stroke-linecap="round" stroke-linejoin="round" stroke-miterlimit="10" stroke-width=".5" d="M45.7 54c.1-.3.3-.7.4-1 .6-1.3 1.9-1.2 1.5.1-.2.8-.4 1.2-.5 1.9"/><path fill="none" stroke="#001466" stroke-linecap="round" stroke-linejoin="round" stroke-miterlimit="10" stroke-width=".5" d="M47.1 54.6c.1-.2.2-.4.4-.6.7-1.3 2-1 1.4.3-.2.5-.4.9-.5 1.3M45.6 54.5c.2-4.2.3-4.3 1-5.8.8-1.8-.5-2.1-1.4-.3-1 1.6-1.5 4-1.9 9 0 0-1.4-4.2-2.5-4-1 .2 0 2.9.9 4.4 1 1.7 1 3.1.7 5-.5 3.9-1.1 7.9-1.1 7.9s-9.7-7.2-13.7-8.2c-2.7-.7-10.9 0-12.1.3M24.8 89.9l.8-7.7c3.7-2.4 4.7-4.8 4.8-6.6.1-1.8-.8-3.1-.9-3.3"/><path fill="none" stroke="#001466" stroke-linecap="round" stroke-linejoin="round" stroke-miterlimit="10" stroke-width=".5" d="M15.9 62.9c-2.3.7-4.1 2.7-4.4 5.1L8.3 89.9M29.5 72.3h0l1.8 1h0l6.8 4c3.8 2.2 8.6-.4 8.8-4.8 0 0 .2-3.8.3-6.9.2-5.2 2.2-9.3 2.4-10 .4-1-.3-1.4-.9-.9M24.7 50.7l.2-.6.4.3"/><path fill="#fff" stroke="#001466" stroke-linecap="round" stroke-linejoin="round" stroke-miterlimit="10" stroke-width=".5" d="M73 34.6s.4 1.1 2 1.4c.2 0 .2.3 0 .3-.9.3-2.6.5-5.2-.7h0c-1.5.3-3.1.3-4.6-.1-1.6-.4-3.1-1.3-4.1-2.6-.3-.4-.5-.7-.7-1.2-1-2.1-.7-4.5-.1-6.8.2-.7 2.5-4.8 7.8-4.7.9 0 1.9.2 3 .5 2.3.6 4.1 2.9 4.7 5.2.3 1.5.3 3 0 4.5-.1.5-.2 1-.3 1.4-.1.4-.3.9-.6 1.3v.1c-.6.6-1.2 1-1.9 1.4z"/><path fill="#e6f3fb" d="M72.9 29.5c0 .3-.1.6-.2.9-.1.3-.2.6-.4.8-.5.7-1.3 1-2.1 1.3-1.3.4-2.7.5-4 .2-1-.3-2-.9-2.6-1.7-.2-.2-.3-.5-.5-.7-.6-1.3-.4-2.9-.1-4.3.1-.5 1.6-3 5-3 .6 0 1.2.1 1.9.3 1.5.4 2.6 1.8 3 3.3.2 1 .1 1.9 0 2.9z"/><path fill="none" stroke="#001466" stroke-linecap="round" stroke-linejoin="round" stroke-miterlimit="10" stroke-width=".5" d="M68.1 24.3V28l2.2 1.2"/><path fill="#113ffb" d="M68.8 25.1h-1.4c-.2 0-.3-.2-.2-.4l.7-1.1c.1-.1.3-.1.4 0l.7 1.1c.1.2 0 .4-.2.4zM69.7 29.6l.6-1.2c.1-.2.3-.2.4 0l.6 1c.1.1 0 .3-.1.3l-1.2.2c-.3.1-.4-.1-.3-.3z"/><path fill="#fdb870" d="M68.8 28.2c0 .1 0 .2-.1.3-.1.1-.2.2-.3.2-.2.1-.4.1-.6 0-.2 0-.3-.1-.4-.3l-.1-.1c-.1-.2-.1-.4 0-.6 0-.1.3-.6 1-.4.2.1.4.3.4.5.2.1.2.2.1.4z"/><path fill="#fff" stroke="#001466" stroke-linecap="round" stroke-linejoin="round" stroke-miterlimit="10" stroke-width=".5" d="M68.1 21.3v.5M64.7 22.1l.3.4M62.2 24.4l.5.3M61.2 27.7h.5M62 31.1l.5-.3M64.3 33.6l.3-.5M67.6 34.6v-.5M71 33.8l-.3-.4M73.5 31.5l-.5-.3M74.5 28.2H74M73.7 24.8l-.4.3M71.4 22.3l-.3.5M85.5 76 83 75c-3.2-.3-5.2-1.4-5.2-1.4-2.9-1.1-3.1-2.3-1.8-2-2-1.1-1.8-2.3-.4-1.5-2.1-1.2-1.6-2.5 0-1.4.2.2.5.3.7.4-2.5-1.6-1.9-3.2-.3-1.8 2 1.7 5.2 2.3 5.2 2.3l-.6-3.3s2.5 1.9 3.7 4.5L95 73.2l-3.5-7.9"/><path fill="none" stroke="#001466" stroke-linecap="round" stroke-linejoin="round" stroke-miterlimit="10" stroke-width=".5" d="m76.2 69 .1.1c.5.3 1.2.6 2 .9M75.6 70s1.1.7 2.1.8M75.9 71.5s.9.6 1.7.7"/><path fill="#fff" stroke="#001466" stroke-linecap="round" stroke-linejoin="round" stroke-miterlimit="10" stroke-width=".5" d="m86.6 71.3-1 4.7M58 62.7s-1.8 1.4-.4 3.1"/><path fill="#001466" d="M13.9 47.8c0 1.9-1.6 3.5-3.5 3.5s-3.5-1.6-3.5-3.5 1.6-3.5 3.5-3.5c2 .1 3.5 1.6 3.5 3.5z"/><path fill="none" stroke="#001466" stroke-linecap="round" stroke-linejoin="round" stroke-miterlimit="10" stroke-width=".5" d="m14.1 43.6-2.2 9.3M25.8 54s.4.5 1.5.1"/><path fill="#113ffb" d="M8.7 32.7c.1.6.3 1.3.6 1.8.5.7 1.4 1.1 2.2 1.3 1.4.4 2.8.6 4.2.2.2 0 .4-.1.5-.2.9.6 2.2 1.3 2.4 1 .1-.2-.1-1.4-.4-2.3.3-.3.5-.7.7-1.1.7-1.4.5-3 .1-4.5-.1-.6-2.3-4.2-7.3-2.8-1.6.4-2.7 1.9-3.1 3.5-.2 1.1-.1 2.1.1 3.1z"/><path fill="#fff" stroke="#001466" stroke-linecap="round" stroke-linejoin="round" stroke-miterlimit="10" stroke-width=".5" d="m94.8 73.2 2.6.7"/><path fill="#ff7757" d="M14.9 63.2s.1-1.8 2.2-2.3c1.1-.3 3-.4 4.7-.4 1.8 0 3.4.7 4.2 1.9-.5.5-1.1.8-1.7.9-5.7 1.1-7.6.7-9.4-.1z"/><path fill="#fff" d="M12.2 31.3c0 .5-.4.9-.9.9s-.9-.4-.9-.9.4-.9.9-.9.9.4.9.9zM14.7 31.3c0 .5-.4.9-.9.9s-.9-.4-.9-.9.4-.9.9-.9c.6 0 .9.4.9.9zM17.2 31.3c0 .5-.4.9-.9.9s-.9-.4-.9-.9.4-.9.9-.9c.6 0 .9.4.9.9z"/><path fill="#001466" stroke="#001466" stroke-linecap="round" stroke-linejoin="round" stroke-miterlimit="10" stroke-width=".5" d="M81.5 53s.8-.1 1.8-1c0 0 .1 1.5-1.5 1.9M63.7 71.1l-.2 3.7 1 .8zM23 56.7l-1.4-.6 1.1 1.6M29.5 72.3c.1.1.9 1.4.9 3.3l-2.7-4.4 3.6 2.2-1.8-1.1z"/></svg>